<?xml version="1.0" standalone="no"?>
<!DOCTYPE svg PUBLIC "-//W3C//DTD SVG 20010904//EN"
 "http://www.w3.org/TR/2001/REC-SVG-20010904/DTD/svg10.dtd">
<svg version="1.0" xmlns="http://www.w3.org/2000/svg"
 width="400.000000pt" height="400.000000pt" viewBox="0 0 400.000000 400.000000"
 preserveAspectRatio="xMidYMid meet">
<metadata>
Created by potrace 1.11, written by Peter Selinger 2001-2013
</metadata>
<g transform="translate(0.000000,400.000000) scale(0.100000,-0.100000)"
fill="#000000" stroke="none">
<path d="M2082 3039 c-162 -28 -298 -114 -387 -244 l-39 -56 -80 7 c-375 29
-684 -314 -612 -679 20 -102 73 -211 134 -275 54 -58 82 -65 126 -31 39 31 35
76 -11 131 -149 177 -135 433 33 589 110 102 267 136 416 89 86 -27 112 -26
137 6 23 29 26 55 11 84 -20 38 82 143 190 194 60 29 73 31 170 31 97 0 110
-2 172 -32 157 -74 248 -215 248 -383 0 -37 -7 -91 -16 -121 -49 -168 -218
-299 -386 -299 l-49 0 22 -29 c22 -29 23 -71 4 -115 -8 -17 -4 -18 56 -11 306
35 523 274 523 575 0 307 -228 551 -534 573 -41 3 -99 1 -128 -4z"/>
<path d="M1840 2616 c0 -34 -37 -86 -62 -86 -7 0 10 -24 38 -52 28 -29 60 -67
72 -83 33 -49 62 -149 62 -213 l0 -59 74 -25 75 -25 6 52 c14 108 -24 255 -94
361 -36 56 -143 164 -162 164 -5 0 -9 -15 -9 -34z"/>
<path d="M1733 2100 c-233 -42 -419 -223 -468 -455 -18 -88 -19 -142 0 -230
64 -305 355 -504 659 -452 94 17 131 34 148 73 14 30 0 66 -37 90 -24 15 -29
15 -83 0 -276 -77 -542 122 -542 404 0 151 77 286 210 367 100 61 265 70 374
20 92 -42 141 -33 160 29 16 53 -41 102 -163 138 -68 20 -191 28 -258 16z"/>
<path d="M1934 1864 c-4 -30 -1 -76 9 -128 49 -246 222 -403 503 -455 283 -53
563 10 802 179 76 53 89 79 50 103 -13 9 -31 0 -90 -40 -98 -68 -199 -117
-305 -150 -80 -24 -103 -27 -258 -27 -148 -1 -180 2 -249 22 -176 51 -278 130
-342 267 -31 64 -37 89 -42 165 -5 88 -5 89 -35 99 -16 6 -31 11 -33 11 -1 0
-6 -21 -10 -46z"/>
</g>
</svg>
